<svg width="746" height="746" viewBox="0 0 746 746" fill="none" xmlns="http://www.w3.org/2000/svg">
<path d="M307.5 37.8164C348.032 14.4155 397.968 14.4155 438.5 37.8164L630.527 148.684C671.059 172.084 696.027 215.331 696.027 262.133V483.867C696.027 530.669 671.059 573.916 630.527 597.316L438.5 708.184C397.968 731.584 348.032 731.584 307.5 708.184L115.473 597.316C74.941 573.916 49.9725 530.669 49.9725 483.867V262.133C49.9725 215.331 74.941 172.084 115.473 148.684L307.5 37.8164Z" fill="#00701A"/>
<path d="M319.599 122.435C351.143 99.5166 393.857 99.5166 425.401 122.435L593.979 244.914C625.523 267.832 638.722 308.455 626.674 345.537L562.282 543.713C550.234 580.795 515.678 605.901 476.687 605.901L268.313 605.901C229.322 605.901 194.766 580.795 182.718 543.713L118.326 345.537C106.278 308.455 119.477 267.832 151.021 244.914L319.599 122.435Z" fill="white" fill-opacity="0.4"/>
<path d="M334.109 149.891C355.588 128.412 390.412 128.412 411.891 149.891L580.109 318.109C601.588 339.588 601.588 374.412 580.109 395.891L411.891 564.109C390.412 585.588 355.588 585.588 334.109 564.109L165.891 395.891C144.412 374.412 144.412 339.588 165.891 318.109L334.109 149.891Z" fill="white" fill-opacity="0.4"/>
<path d="M353.935 178.105C362.398 163.41 383.602 163.41 392.065 178.105L524.615 408.271C533.061 422.938 522.475 441.25 505.55 441.25L240.45 441.25C223.525 441.25 212.939 422.938 221.385 408.271L353.935 178.105Z" fill="white" fill-opacity="0.4"/>
</svg>
